# xmcd
#
# Track frame offsets:
#	150
#	44272
#	60798
#	93364
#	128901
#	144355
#	178297
#	206012
#	220678
#
# Disc length: 3248 seconds
#
# Revision: 1
# Processed by: cddbd v1.5.2PL0 Copyright (c) Steve Scherf et al.
# Submitted via: audiograbber 1.83.01
#
DISCID=7c0cae09
DTITLE=Grateful Dead - 78-07-05A Omaha Civic Auditorium, Omaha NB
DYEAR=1900
DGENRE=
TTITLE0=Sugaree
TTITLE1=Beat It On Down The Line
TTITLE2=They Love Each Other
TTITLE3=Looks Like Rain
TTITLE4=Dire Wolf
TTITLE5=It's All Over Now
TTITLE6=Candyman
TTITLE7=Lazy Lightning
TTITLE8=Supplication
EXTD=
EXTT0=
EXTT1=
EXTT2=
EXTT3=
EXTT4=
EXTT5=
EXTT6=
EXTT7=
EXTT8=
PLAYORDER=
